<?xml version="1.0" encoding="UTF-8"?>
<!DOCTYPE svg PUBLIC "-//W3C//DTD SVG 1.1//EN" "http://www.w3.org/Graphics/SVG/1.1/DTD/svg11.dtd">
<svg xmlns="http://www.w3.org/2000/svg" version="1.1" width="60px" height="45px" style="shape-rendering:geometricPrecision; text-rendering:geometricPrecision; image-rendering:optimizeQuality; fill-rule:evenodd; clip-rule:evenodd" xmlns:xlink="http://www.w3.org/1999/xlink">
<g><path style="opacity:0.812" fill="#fefffe" d="M 16.5,-0.5 C 19.8333,-0.5 23.1667,-0.5 26.5,-0.5C 29.2508,3.75696 32.5842,7.59029 36.5,11C 42.1667,11.3333 47.8333,11.6667 53.5,12C 56.0226,13.3597 58.0226,15.193 59.5,17.5C 59.5,21.8333 59.5,26.1667 59.5,30.5C 42.83,30.6666 26.1633,30.4999 9.5,30C 7.91941,29.2935 6.41941,28.4601 5,27.5C 2.84209,22.8413 1.00876,18.1746 -0.5,13.5C -0.5,11.1667 -0.5,8.83333 -0.5,6.5C 2.74306,5.42002 6.07639,5.25335 9.5,6C 15.8372,13.821 17.8372,13.1543 15.5,4C 15.7728,2.46718 16.1062,0.967177 16.5,-0.5 Z M 20.5,5.5 C 21.2506,4.42654 22.2506,4.25988 23.5,5C 27.2026,8.36749 30.536,12.0342 33.5,16C 40.274,16.0779 46.9406,16.7446 53.5,18C 54.8672,20.3015 55.5339,22.8015 55.5,25.5C 40.4963,25.6666 25.4963,25.4999 10.5,25C 7.4496,21.0337 5.4496,16.5337 4.5,11.5C 5.36495,10.4173 6.36495,10.2506 7.5,11C 8.4533,12.9552 9.78663,14.6218 11.5,16C 23.36,19.3267 26.36,15.8267 20.5,5.5 Z"/></g>
<g><path style="opacity:0.812" fill="#fefffe" d="M 53.5,44.5 C 39.8333,44.5 26.1667,44.5 12.5,44.5C 12.2267,42.549 12.8934,41.049 14.5,40C 26.8333,39.3333 39.1667,39.3333 51.5,40C 53.1066,41.049 53.7733,42.549 53.5,44.5 Z"/></g>
</svg>
