<?xml version="1.0" encoding="UTF-8"?>
<!DOCTYPE svg PUBLIC "-//W3C//DTD SVG 1.1//EN" "http://www.w3.org/Graphics/SVG/1.1/DTD/svg11.dtd">
<svg xmlns="http://www.w3.org/2000/svg" version="1.1" width="50px" height="45px" style="shape-rendering:geometricPrecision; text-rendering:geometricPrecision; image-rendering:optimizeQuality; fill-rule:evenodd; clip-rule:evenodd" xmlns:xlink="http://www.w3.org/1999/xlink">
<g><path style="opacity:0.793" fill="#fefffe" d="M 30.5,-0.5 C 32.1667,-0.5 33.8333,-0.5 35.5,-0.5C 38.3946,3.37079 37.5613,6.03746 33,7.5C 28.1579,6.13715 27.3245,3.47048 30.5,-0.5 Z"/></g>
<g><path style="opacity:0.831" fill="#fefffe" d="M 22.5,5.5 C 24.1992,5.33982 25.8659,5.50649 27.5,6C 29.2907,8.41399 30.9574,10.914 32.5,13.5C 34.7427,14.4742 37.076,14.8076 39.5,14.5C 39.5,15.8333 39.5,17.1667 39.5,18.5C 36.1501,18.665 32.8168,18.4983 29.5,18C 28.3816,16.9264 27.3816,15.7598 26.5,14.5C 25.0186,15.4803 23.6853,16.647 22.5,18C 24.0905,19.0458 25.5905,20.2125 27,21.5C 27.4993,26.4889 27.6659,31.4889 27.5,36.5C 25.8333,36.5 24.1667,36.5 22.5,36.5C 24.4202,29.1575 22.0869,23.9909 15.5,21C 14.1955,20.196 13.5288,19.0293 13.5,17.5C 16.4911,13.5068 19.4911,9.50676 22.5,5.5 Z"/></g>
<g><path style="opacity:0.781" fill="#fefffe" d="M 14.5,44.5 C 11.5,44.5 8.5,44.5 5.5,44.5C 3.16667,42.8333 1.16667,40.8333 -0.5,38.5C -0.5,35.5 -0.5,32.5 -0.5,29.5C 5.10322,21.1066 11.6032,20.4399 19,27.5C 21.9341,34.4486 20.4341,40.1153 14.5,44.5 Z M 7.5,26.5 C 14.1411,26.6389 16.9745,29.9722 16,36.5C 12.399,41.3211 8.39899,41.6545 4,37.5C 2.66312,32.8721 3.82979,29.2054 7.5,26.5 Z"/></g>
<g><path style="opacity:0.772" fill="#fefffe" d="M 49.5,28.5 C 49.5,31.8333 49.5,35.1667 49.5,38.5C 47.8333,40.8333 45.8333,42.8333 43.5,44.5C 40.5,44.5 37.5,44.5 34.5,44.5C 28.4307,40.207 26.9307,34.5404 30,27.5C 36.896,20.7011 43.396,21.0345 49.5,28.5 Z M 36.5,26.5 C 44.0978,26.3341 46.9312,30.0008 45,37.5C 36.4209,43.1694 32.4209,40.8361 33,30.5C 34.3756,29.2949 35.5423,27.9616 36.5,26.5 Z"/></g>
</svg>
