<?xml version="1.0" encoding="UTF-8"?>
<!DOCTYPE svg PUBLIC "-//W3C//DTD SVG 1.1//EN" "http://www.w3.org/Graphics/SVG/1.1/DTD/svg11.dtd">
<svg xmlns="http://www.w3.org/2000/svg" version="1.1" width="52px" height="52px" style="shape-rendering:geometricPrecision; text-rendering:geometricPrecision; image-rendering:optimizeQuality; fill-rule:evenodd; clip-rule:evenodd" xmlns:xlink="http://www.w3.org/1999/xlink">
<g><path style="opacity:0.849" fill="#fefffe" d="M 4.5,-0.5 C 18.5,-0.5 32.5,-0.5 46.5,-0.5C 48.5,0.833333 50.1667,2.5 51.5,4.5C 51.5,18.5 51.5,32.5 51.5,46.5C 50.1667,48.5 48.5,50.1667 46.5,51.5C 32.5,51.5 18.5,51.5 4.5,51.5C 2.5,50.1667 0.833333,48.5 -0.5,46.5C -0.5,32.5 -0.5,18.5 -0.5,4.5C 0.833333,2.5 2.5,0.833333 4.5,-0.5 Z M 6.5,3.5 C 19.1711,3.33345 31.8377,3.50012 44.5,4C 46.9193,5.50879 47.9193,7.67546 47.5,10.5C 32.8333,10.5 18.1667,10.5 3.5,10.5C 3.14963,7.54661 4.14963,5.21328 6.5,3.5 Z M 3.5,15.5 C 18.1667,15.5 32.8333,15.5 47.5,15.5C 47.6665,25.1724 47.4998,34.8391 47,44.5C 46.1667,45.3333 45.3333,46.1667 44.5,47C 31.8333,47.6667 19.1667,47.6667 6.5,47C 5.66667,46.1667 4.83333,45.3333 4,44.5C 3.5002,34.8391 3.33353,25.1724 3.5,15.5 Z"/></g>
<g><path style="opacity:0.785" fill="#fefffe" d="M 11.5,20.5 C 17.0204,21.0435 18.3538,23.5435 15.5,28C 9.20156,28.4954 7.86823,25.9954 11.5,20.5 Z"/></g>
<g><path style="opacity:0.753" fill="#fefffe" d="M 23.5,20.5 C 28.7083,20.369 30.3749,22.7024 28.5,27.5C 21.3692,29.2698 19.7025,26.9365 23.5,20.5 Z"/></g>
<g><path style="opacity:0.785" fill="#fefffe" d="M 36.5,20.5 C 41.2624,21.0925 42.5957,23.5925 40.5,28C 33.17,28.4855 31.8367,25.9855 36.5,20.5 Z"/></g>
<g><path style="opacity:0.771" fill="#fefffe" d="M 10.5,32.5 C 16.9511,32.0924 18.6178,34.5924 15.5,40C 9.78534,40.401 8.11867,37.901 10.5,32.5 Z"/></g>
<g><path style="opacity:0.79" fill="#fefffe" d="M 23.5,32.5 C 29.4877,32.664 30.821,35.164 27.5,40C 21.4034,40.1475 20.0701,37.6475 23.5,32.5 Z"/></g>
</svg>
