<?xml version="1.0" encoding="UTF-8"?>
<!DOCTYPE svg PUBLIC "-//W3C//DTD SVG 1.1//EN" "http://www.w3.org/Graphics/SVG/1.1/DTD/svg11.dtd">
<svg xmlns="http://www.w3.org/2000/svg" version="1.1" width="30px" height="30px" style="shape-rendering:geometricPrecision; text-rendering:geometricPrecision; image-rendering:optimizeQuality; fill-rule:evenodd; clip-rule:evenodd" xmlns:xlink="http://www.w3.org/1999/xlink">
<g><path style="opacity:0.676" fill="#fefffe" d="M 9.5,-0.5 C 10.1667,-0.5 10.8333,-0.5 11.5,-0.5C 11.369,0.238911 11.5357,0.905578 12,1.5C 15.9298,0.242998 19.5965,0.909665 23,3.5C 23.8958,6.79213 22.7291,9.12547 19.5,10.5C 22.2979,11.9689 25.2979,12.8022 28.5,13C 24.953,14.5476 23.6197,17.0476 24.5,20.5C 26.5486,19.1182 28.2153,17.4516 29.5,15.5C 29.5,17.1667 29.5,18.8333 29.5,20.5C 26.6443,23.0967 23.3109,24.9301 19.5,26C 22.1899,26.3345 22.8565,27.5012 21.5,29.5C 17.5,29.5 13.5,29.5 9.5,29.5C 8.73747,28.7321 7.73747,28.2321 6.5,28C 7.83333,27.6667 9.16667,27.3333 10.5,27C 7.24152,26.9968 4.57485,25.8302 2.5,23.5C 3,23.1667 3.5,22.8333 4,22.5C 9.48996,23.6836 14.99,23.6836 20.5,22.5C 22.6204,15.6443 21.2871,14.811 16.5,20C 10.6202,21.0099 4.95356,20.5099 -0.5,18.5C -0.5,16.1667 -0.5,13.8333 -0.5,11.5C -0.00904729,14.1523 1.65762,15.6523 4.5,16C 9.59344,16.572 14.5934,16.072 19.5,14.5C 18.5637,13.0256 17.2303,12.0256 15.5,11.5C 13.3921,12.1018 11.2254,12.4351 9,12.5C 5.34259,13.099 2.50925,11.9324 0.5,9C 1.30413,7.22865 2.47079,5.72865 4,4.5C 4.17982,7.67905 5.84649,9.01239 9,8.5C 13.3411,8.44946 16.8411,6.7828 19.5,3.5C 16.1695,1.82815 13.5028,2.49481 11.5,5.5C 10.0878,4.19362 8.42111,3.36029 6.5,3C 7.7101,1.9609 8.7101,0.794229 9.5,-0.5 Z M 12.5,26.5 C 19.6138,26.3611 19.9471,27.0278 13.5,28.5C 11.279,28.5613 10.9456,27.8946 12.5,26.5 Z"/></g>
</svg>
